{"title":"Eminem ft. Sia - Guts Over Fear (2014.HipHop)","uid":11560218,"size":123157320,"categoryP":"video","categoryS":"music_videos","magnet":"?xt=urn:btih:12165f01cca2bcf00e8e8ff3d2fce451dbdf23cf&amp;dn=Eminem+ft.+Sia+-+Guts+Over+Fear+%282014.HipHop%29&amp;tr=udp%3A%2F%2Ftracker.openbittorrent.com%3A80&amp;tr=udp%3A%2F%2Fopen.demonii.com%3A1337&amp;tr=udp%3A%2F%2Ftracker.coppersurfer.tk%3A6969&amp;tr=udp%3A%2F%2Fexodus.desync.com%3A6969","seeders":9,"leechers":0,"uploader":"MeRaDil","files":1,"time":1416871517,"description":"EMINEM ft.SIA - GUTS OVER FEAR\n\n &lt;a href=&quot;\nhttp://gifyu.com/images/Eminem.png&quot; rel=&quot;nofollow&quot; target=&quot;_NEW&quot;&gt;\nhttp://gifyu.com/images/Eminem.png&lt;/a&gt;\n\nMPEG4 MUSIC VID\nGeneral\nEminem ft. Sia - Guts Over Fear\nFormat                                   : MPEG-4\nFormat profile                           : Base Media\nCodec ID                                 : isom\nFile size                                : 117 MiB\nDuration                                 : 5mn 32s\nOverall bit rate                         : 2 964 Kbps\nMusicVid name                            : Guts Over Fear\nAlbum                                    : Shady XV\nPerformer                                : Eminem ft. Sia\nGenre                                    : HipHop\nContentType                              : Music Video\nRecorded date                            : 2014\nISRC                                     : The Promo Bay\nCopyright                                : Eminem\nCover                                    : Yes\nRating                                   : ***\nMake                                     : MeRaDil\noday                                     : 24-11-2014\nrati                                     : (Binary)\nArtist url                               : http://www.eminem.com\nrelease                                  : USA - november 24 - 2014\n\nVideo\nID                                       : 1\nFormat                                   : AVC\nFormat/Info                              : Advanced Video Codec\nFormat profile                           : &lt;a class=&quot;__cf_email__&quot; href=&quot;/cdn-cgi/l/email-protection&quot; data-cfemail=&quot;b2fadbd5daf2fe869c82&quot;&gt;[email&amp;#160;protected]&lt;/a&gt;&lt;script cf-hash='f9e31' type=&quot;text/javascript&quot;&gt;\n/* &lt;![CDATA[ */!function(){try{var t=&quot;currentScript&quot;in document?document.currentScript:function(){for(var t=document.getElementsByTagName(&quot;script&quot;),e=t.length;e--;)if(t[e].getAttribute(&quot;cf-hash&quot;))return t[e]}();if(t&amp;&amp;t.previousSibling){var e,r,n,i,c=t.previousSibling,a=c.getAttribute(&quot;data-cfemail&quot;);if(a){for(e=&quot;&quot;,r=parseInt(a.substr(0,2),16),n=2;a.length-n;n+=2)i=parseInt(a.substr(n,2),16)^r,e+=String.fromCharCode(i);e=document.createTextNode(e),c.parentNode.replaceChild(e,c)}}}catch(u){}}();/* ]]&gt; */&lt;/script&gt;\nFormat settings, CABAC                   : Yes\nFormat settings, ReFrames                : 2 frames\nCodec ID                                 : avc1\nCodec ID/Info                            : Advanced Video Coding\nDuration                                 : 5mn 32s\nBit rate                                 : 2 696 Kbps\nWidth                                    : 1 920 pixels\nHeight                                   : 1 080 pixels\nDisplay aspect ratio                     : 16:9\nFrame rate mode                          : Variable\nFrame rate                               : 23.976 fps\nMinimum frame rate                       : 23.974 fps\nMaximum frame rate                       : 23.981 fps\nColor space                              : YUV\nChroma subsampling                       : 4:2:0\nBit depth                                : 8 bits\nScan type                                : Progressive\nBits/(Pixel*Frame)                       : 0.054\nStream size                              : 107 MiB (91%)\n\nAudio\nID                                       : 2\nFormat                                   : AAC\nFormat/Info                              : Advanced Audio Codec\nFormat profile                           : LC\nCodec ID                                 : 40\nDuration                                 : 5mn 32s\nBit rate mode                            : Constant\nBit rate                                 : 256 Kbps\nChannel(s)                               : 2 channels\nChannel positions                        : Front: L R\nSampling rate                            : 44.1 KHz\nCompression mode                         : Lossy\nStream size                              : 10.1 MiB (9%)\n &lt;a href=&quot;\nhttps://thepiratebay.se/user/MeRaDil&quot; rel=&quot;nofollow&quot; target=&quot;_NEW&quot;&gt;\nhttps://thepiratebay.se/user/MeRaDil&lt;/a&gt;\n\nEminem * Shady XV * Sia * Rap * HipHop\n\n:)","torrent":{"xt":"urn:btih:12165f01cca2bcf00e8e8ff3d2fce451dbdf23cf","amp;dn":"Eminem+ft.+Sia+-+Guts+Over+Fear+%282014.HipHop%29","amp;tr":["udp%3A%2F%2Ftracker.openbittorrent.com%3A80","udp%3A%2F%2Fopen.demonii.com%3A1337","udp%3A%2F%2Ftracker.coppersurfer.tk%3A6969","udp%3A%2F%2Fexodus.desync.com%3A6969"],"infoHash":"12165f01cca2bcf00e8e8ff3d2fce451dbdf23cf","infoHashBuffer":{"type":"Buffer","data":[18,22,95,1,204,162,188,240,14,142,143,243,210,252,228,81,219,223,35,207]},"announce":[],"urlList":[]}}